<svg width="144" height="100" viewBox="0 0 144 100" fill="none" xmlns="http://www.w3.org/2000/svg">
<path d="M16.7591 88.964V94.5H16.0311V90.372L14.1911 94.5H13.6791L11.8311 90.364V94.5H11.1031V88.964H11.8871L13.9351 93.54L15.9831 88.964H16.7591Z" fill="white"/>
<path d="M37.3663 88.924V89.516H35.8463V94.5H35.1183V89.516H33.5903V88.924H37.3663Z" fill="white"/>
<path d="M59.8257 88.924L58.2097 94.5H57.3937L56.0977 90.012L54.7537 94.5L53.9457 94.508L52.3857 88.924H53.1617L54.3777 93.652L55.7217 88.924H56.5377L57.8177 93.636L59.0417 88.924H59.8257Z" fill="white"/>
<path d="M79.8238 88.924V89.516H78.3038V94.5H77.5758V89.516H76.0478V88.924H79.8238Z" fill="white"/>
<path d="M101.028 88.924V89.516H98.6041V91.396H100.572V91.988H98.6041V94.5H97.8761V88.924H101.028Z" fill="white"/>
<path d="M120.648 94.556C120.28 94.556 119.949 94.492 119.656 94.364C119.368 94.2307 119.141 94.0493 118.976 93.82C118.811 93.5853 118.725 93.316 118.72 93.012H119.496C119.523 93.2733 119.629 93.4947 119.816 93.676C120.008 93.852 120.285 93.94 120.648 93.94C120.995 93.94 121.267 93.8547 121.464 93.684C121.667 93.508 121.768 93.284 121.768 93.012C121.768 92.7987 121.709 92.6253 121.592 92.492C121.475 92.3587 121.328 92.2573 121.152 92.188C120.976 92.1187 120.739 92.044 120.44 91.964C120.072 91.868 119.776 91.772 119.552 91.676C119.333 91.58 119.144 91.4307 118.984 91.228C118.829 91.02 118.752 90.7427 118.752 90.396C118.752 90.092 118.829 89.8227 118.984 89.588C119.139 89.3533 119.355 89.172 119.632 89.044C119.915 88.916 120.237 88.852 120.6 88.852C121.123 88.852 121.549 88.9827 121.88 89.244C122.216 89.5053 122.405 89.852 122.448 90.284H121.648C121.621 90.0707 121.509 89.884 121.312 89.724C121.115 89.5587 120.853 89.476 120.528 89.476C120.224 89.476 119.976 89.556 119.784 89.716C119.592 89.8707 119.496 90.0893 119.496 90.372C119.496 90.5747 119.552 90.74 119.664 90.868C119.781 90.996 119.923 91.0947 120.088 91.164C120.259 91.228 120.496 91.3027 120.8 91.388C121.168 91.4893 121.464 91.5907 121.688 91.692C121.912 91.788 122.104 91.94 122.264 92.148C122.424 92.3507 122.504 92.628 122.504 92.98C122.504 93.252 122.432 93.508 122.288 93.748C122.144 93.988 121.931 94.1827 121.648 94.332C121.365 94.4813 121.032 94.556 120.648 94.556Z" fill="white"/>
<path d="M141.984 94.556C141.616 94.556 141.285 94.492 140.992 94.364C140.704 94.2307 140.477 94.0493 140.312 93.82C140.146 93.5853 140.061 93.316 140.056 93.012H140.832C140.858 93.2733 140.965 93.4947 141.152 93.676C141.344 93.852 141.621 93.94 141.984 93.94C142.33 93.94 142.602 93.8547 142.8 93.684C143.002 93.508 143.104 93.284 143.104 93.012C143.104 92.7987 143.045 92.6253 142.928 92.492C142.81 92.3587 142.664 92.2573 142.488 92.188C142.312 92.1187 142.074 92.044 141.776 91.964C141.408 91.868 141.112 91.772 140.888 91.676C140.669 91.58 140.48 91.4307 140.32 91.228C140.165 91.02 140.088 90.7427 140.088 90.396C140.088 90.092 140.165 89.8227 140.32 89.588C140.474 89.3533 140.69 89.172 140.968 89.044C141.25 88.916 141.573 88.852 141.936 88.852C142.458 88.852 142.885 88.9827 143.216 89.244C143.552 89.5053 143.741 89.852 143.784 90.284H142.984C142.957 90.0707 142.845 89.884 142.648 89.724C142.45 89.5587 142.189 89.476 141.864 89.476C141.56 89.476 141.312 89.556 141.12 89.716C140.928 89.8707 140.832 90.0893 140.832 90.372C140.832 90.5747 140.888 90.74 141 90.868C141.117 90.996 141.258 91.0947 141.424 91.164C141.594 91.228 141.832 91.3027 142.136 91.388C142.504 91.4893 142.8 91.5907 143.024 91.692C143.248 91.788 143.44 91.94 143.6 92.148C143.76 92.3507 143.84 92.628 143.84 92.98C143.84 93.252 143.768 93.508 143.624 93.748C143.48 93.988 143.266 94.1827 142.984 94.332C142.701 94.4813 142.368 94.556 141.984 94.556Z" fill="white"/>
<path d="M14.5 82.5L35.7505 15.38L58 43H73L99.758 3.30002L121.094 31.94L142 82.5" fill="url(#paint0_linear_1_417)"/>
<defs>
<linearGradient id="paint0_linear_1_417" x1="78.25" y1="2.99997" x2="78.25" y2="91" gradientUnits="userSpaceOnUse">
<stop stop-color="#C1EF00"/>
<stop offset="1" stop-color="#232323"/>
</linearGradient>
</defs>
</svg>
