<svg width="844" height="189" viewBox="0 0 844 189" fill="none" xmlns="http://www.w3.org/2000/svg">
<path d="M52.8527 167.978H843" stroke="#7C7C7C"/>
<path d="M52.8527 173.984V167.978" stroke="#7C7C7C"/>
<path d="M47.7626 177.257H48.8194V183.495C48.8194 184.052 48.7172 184.525 48.5126 184.915C48.3081 185.304 48.0197 185.599 47.6476 185.801C47.2754 186.003 46.8365 186.103 46.3308 186.103C45.8535 186.103 45.4288 186.017 45.0566 185.843C44.6845 185.667 44.3919 185.417 44.1788 185.093C43.9657 184.77 43.8592 184.385 43.8592 183.939H44.899C44.899 184.186 44.9601 184.402 45.0822 184.586C45.2072 184.768 45.3777 184.91 45.5936 185.013C45.8095 185.115 46.0552 185.166 46.3308 185.166C46.6348 185.166 46.8933 185.102 47.1064 184.974C47.3194 184.846 47.4814 184.659 47.5922 184.412C47.7058 184.162 47.7626 183.856 47.7626 183.495V177.257ZM52.7271 186.138C52.3123 186.138 51.9359 186.059 51.5978 185.903C51.2598 185.744 50.9913 185.515 50.7924 185.217C50.5936 184.916 50.4941 184.552 50.4941 184.126C50.4941 183.751 50.568 183.447 50.7157 183.214C50.8635 182.978 51.0609 182.794 51.3081 182.66C51.5552 182.527 51.828 182.427 52.1262 182.362C52.4274 182.294 52.7299 182.24 53.0339 182.2C53.4316 182.149 53.7541 182.111 54.0012 182.085C54.2512 182.057 54.4331 182.01 54.5467 181.944C54.6632 181.879 54.7214 181.765 54.7214 181.603V181.569C54.7214 181.149 54.6064 180.822 54.3762 180.589C54.149 180.356 53.8038 180.24 53.3407 180.24C52.8606 180.24 52.4842 180.345 52.2115 180.555C51.9387 180.765 51.747 180.99 51.6362 181.228L50.6816 180.888C50.8521 180.49 51.0794 180.18 51.3635 179.959C51.6504 179.734 51.9629 179.578 52.301 179.49C52.6419 179.399 52.9771 179.353 53.3066 179.353C53.5169 179.353 53.7583 179.379 54.0311 179.43C54.3066 179.478 54.5723 179.579 54.828 179.733C55.0865 179.886 55.301 180.118 55.4714 180.427C55.6419 180.737 55.7271 181.152 55.7271 181.672V185.984H54.7214V185.098H54.6703C54.6021 185.24 54.4885 185.392 54.3294 185.554C54.1703 185.716 53.9586 185.853 53.6944 185.967C53.4302 186.081 53.1078 186.138 52.7271 186.138ZM52.8805 185.234C53.2782 185.234 53.6135 185.156 53.8862 185C54.1618 184.843 54.3691 184.642 54.5083 184.395C54.6504 184.147 54.7214 183.888 54.7214 183.615V182.694C54.6788 182.745 54.5851 182.792 54.4402 182.835C54.2981 182.875 54.1333 182.91 53.9458 182.942C53.7612 182.97 53.5808 182.995 53.4047 183.018C53.2314 183.038 53.0907 183.055 52.9828 183.069C52.7214 183.103 52.4771 183.159 52.2498 183.236C52.0254 183.309 51.8436 183.422 51.7044 183.572C51.568 183.72 51.4998 183.922 51.4998 184.177C51.4998 184.527 51.6291 184.791 51.8876 184.97C52.149 185.146 52.4799 185.234 52.8805 185.234ZM58.5684 182.047V185.984H57.5627V179.439H58.5343V180.461H58.6195C58.7729 180.129 59.0059 179.862 59.3184 179.66C59.6309 179.456 60.0343 179.353 60.5286 179.353C60.9718 179.353 61.3596 179.444 61.6919 179.626C62.0243 179.805 62.2829 180.078 62.4675 180.444C62.6522 180.808 62.7445 181.268 62.7445 181.825V185.984H61.7388V181.893C61.7388 181.379 61.6053 180.978 61.3383 180.692C61.0712 180.402 60.7047 180.257 60.2388 180.257C59.9178 180.257 59.6309 180.326 59.378 180.466C59.128 180.605 58.9306 180.808 58.7857 181.075C58.6408 181.342 58.5684 181.666 58.5684 182.047Z" fill="#7C7C7C"/>
<path d="M124.684 173.984V167.978" stroke="#7C7C7C"/>
<path d="M115.902 185.984V177.257H121.135V178.194H116.959V181.143H120.743V182.081H116.959V185.984H115.902ZM125.072 186.12C124.441 186.12 123.897 185.981 123.44 185.703C122.986 185.422 122.635 185.03 122.388 184.527C122.143 184.021 122.021 183.433 122.021 182.763C122.021 182.092 122.143 181.501 122.388 180.99C122.635 180.476 122.978 180.075 123.419 179.788C123.862 179.498 124.379 179.353 124.97 179.353C125.311 179.353 125.647 179.41 125.98 179.524C126.312 179.638 126.615 179.822 126.888 180.078C127.16 180.331 127.378 180.666 127.539 181.084C127.701 181.501 127.782 182.015 127.782 182.626V183.052H122.737V182.183H126.76C126.76 181.814 126.686 181.484 126.538 181.194C126.393 180.905 126.186 180.676 125.916 180.508C125.649 180.341 125.334 180.257 124.97 180.257C124.569 180.257 124.223 180.356 123.93 180.555C123.64 180.751 123.417 181.007 123.261 181.322C123.105 181.638 123.027 181.976 123.027 182.336V182.916C123.027 183.41 123.112 183.829 123.282 184.173C123.456 184.514 123.696 184.774 124.003 184.953C124.309 185.129 124.666 185.217 125.072 185.217C125.336 185.217 125.575 185.18 125.788 185.106C126.004 185.03 126.19 184.916 126.346 184.765C126.503 184.612 126.623 184.422 126.709 184.194L127.68 184.467C127.578 184.797 127.406 185.086 127.164 185.336C126.923 185.584 126.625 185.777 126.27 185.916C125.914 186.052 125.515 186.12 125.072 186.12ZM129.449 185.984V177.257H130.454V180.478H130.539C130.613 180.365 130.716 180.22 130.846 180.044C130.98 179.865 131.17 179.706 131.417 179.567C131.667 179.424 132.005 179.353 132.432 179.353C132.983 179.353 133.468 179.491 133.889 179.767C134.309 180.042 134.638 180.433 134.873 180.939C135.109 181.444 135.227 182.041 135.227 182.728C135.227 183.422 135.109 184.022 134.873 184.531C134.638 185.037 134.311 185.429 133.893 185.707C133.476 185.983 132.994 186.12 132.449 186.12C132.028 186.12 131.691 186.051 131.439 185.912C131.186 185.77 130.991 185.609 130.855 185.43C130.718 185.248 130.613 185.098 130.539 184.978H130.42V185.984H129.449ZM130.437 182.711C130.437 183.206 130.51 183.642 130.655 184.02C130.799 184.395 131.011 184.689 131.289 184.902C131.568 185.112 131.909 185.217 132.312 185.217C132.733 185.217 133.084 185.106 133.365 184.885C133.649 184.66 133.862 184.359 134.004 183.981C134.149 183.601 134.221 183.177 134.221 182.711C134.221 182.251 134.15 181.836 134.008 181.467C133.869 181.095 133.657 180.801 133.373 180.585C133.092 180.366 132.738 180.257 132.312 180.257C131.903 180.257 131.559 180.361 131.281 180.568C131.003 180.772 130.792 181.059 130.65 181.429C130.508 181.795 130.437 182.223 130.437 182.711Z" fill="#7C7C7C"/>
<path d="M196.516 173.984V167.978" stroke="#7C7C7C"/>
<path d="M186.621 177.257H187.883L190.849 184.501H190.951L193.917 177.257H195.178V185.984H194.19V179.353H194.104L191.377 185.984H190.423L187.695 179.353H187.61V185.984H186.621V177.257ZM199.087 186.138C198.672 186.138 198.296 186.059 197.958 185.903C197.62 185.744 197.351 185.515 197.152 185.217C196.953 184.916 196.854 184.552 196.854 184.126C196.854 183.751 196.928 183.447 197.076 183.214C197.223 182.978 197.421 182.794 197.668 182.66C197.915 182.527 198.188 182.427 198.486 182.362C198.787 182.294 199.09 182.24 199.394 182.2C199.792 182.149 200.114 182.111 200.361 182.085C200.611 182.057 200.793 182.01 200.907 181.944C201.023 181.879 201.081 181.765 201.081 181.603V181.569C201.081 181.149 200.966 180.822 200.736 180.589C200.509 180.356 200.164 180.24 199.701 180.24C199.221 180.24 198.844 180.345 198.571 180.555C198.299 180.765 198.107 180.99 197.996 181.228L197.042 180.888C197.212 180.49 197.439 180.18 197.723 179.959C198.01 179.734 198.323 179.578 198.661 179.49C199.002 179.399 199.337 179.353 199.667 179.353C199.877 179.353 200.118 179.379 200.391 179.43C200.667 179.478 200.932 179.579 201.188 179.733C201.446 179.886 201.661 180.118 201.831 180.427C202.002 180.737 202.087 181.152 202.087 181.672V185.984H201.081V185.098H201.03C200.962 185.24 200.848 185.392 200.689 185.554C200.53 185.716 200.319 185.853 200.054 185.967C199.79 186.081 199.468 186.138 199.087 186.138ZM199.24 185.234C199.638 185.234 199.973 185.156 200.246 185C200.522 184.843 200.729 184.642 200.868 184.395C201.01 184.147 201.081 183.888 201.081 183.615V182.694C201.039 182.745 200.945 182.792 200.8 182.835C200.658 182.875 200.493 182.91 200.306 182.942C200.121 182.97 199.941 182.995 199.765 183.018C199.591 183.038 199.451 183.055 199.343 183.069C199.081 183.103 198.837 183.159 198.61 183.236C198.385 183.309 198.203 183.422 198.064 183.572C197.928 183.72 197.86 183.922 197.86 184.177C197.86 184.527 197.989 184.791 198.248 184.97C198.509 185.146 198.84 185.234 199.24 185.234ZM203.923 185.984V179.439H204.894V180.427H204.962C205.082 180.103 205.298 179.841 205.61 179.639C205.923 179.437 206.275 179.336 206.667 179.336C206.741 179.336 206.833 179.338 206.944 179.341C207.055 179.343 207.138 179.348 207.195 179.353V180.376C207.161 180.368 207.083 180.355 206.961 180.338C206.842 180.318 206.715 180.308 206.582 180.308C206.263 180.308 205.979 180.375 205.729 180.508C205.482 180.639 205.286 180.821 205.141 181.054C204.999 181.284 204.928 181.547 204.928 181.842V185.984H203.923Z" fill="#7C7C7C"/>
<path d="M268.347 173.984V167.978" stroke="#7C7C7C"/>
<path d="M259.819 185.984H258.711L261.915 177.257H263.006L266.211 185.984H265.103L262.495 178.638H262.427L259.819 185.984ZM260.228 182.575H264.694V183.513H260.228V182.575ZM267.434 188.439V179.439H268.405V180.478H268.525C268.599 180.365 268.701 180.22 268.832 180.044C268.965 179.865 269.155 179.706 269.403 179.567C269.653 179.424 269.991 179.353 270.417 179.353C270.968 179.353 271.454 179.491 271.874 179.767C272.295 180.042 272.623 180.433 272.859 180.939C273.094 181.444 273.212 182.041 273.212 182.728C273.212 183.422 273.094 184.022 272.859 184.531C272.623 185.037 272.296 185.429 271.878 185.707C271.461 185.983 270.979 186.12 270.434 186.12C270.013 186.12 269.677 186.051 269.424 185.912C269.171 185.77 268.976 185.609 268.84 185.43C268.704 185.248 268.599 185.098 268.525 184.978H268.44V188.439H267.434ZM268.423 182.711C268.423 183.206 268.495 183.642 268.64 184.02C268.785 184.395 268.996 184.689 269.275 184.902C269.553 185.112 269.894 185.217 270.298 185.217C270.718 185.217 271.069 185.106 271.35 184.885C271.634 184.66 271.847 184.359 271.989 183.981C272.134 183.601 272.207 183.177 272.207 182.711C272.207 182.251 272.136 181.836 271.994 181.467C271.854 181.095 271.643 180.801 271.359 180.585C271.077 180.366 270.724 180.257 270.298 180.257C269.888 180.257 269.545 180.361 269.266 180.568C268.988 180.772 268.778 181.059 268.636 181.429C268.494 181.795 268.423 182.223 268.423 182.711ZM274.746 185.984V179.439H275.718V180.427H275.786C275.905 180.103 276.121 179.841 276.434 179.639C276.746 179.437 277.099 179.336 277.491 179.336C277.565 179.336 277.657 179.338 277.768 179.341C277.878 179.343 277.962 179.348 278.019 179.353V180.376C277.985 180.368 277.907 180.355 277.785 180.338C277.665 180.318 277.539 180.308 277.405 180.308C277.087 180.308 276.803 180.375 276.553 180.508C276.306 180.639 276.11 180.821 275.965 181.054C275.823 181.284 275.752 181.547 275.752 181.842V185.984H274.746Z" fill="#7C7C7C"/>
<path d="M340.179 173.984V167.978" stroke="#7C7C7C"/>
<path d="M329.294 177.257H330.556L333.522 184.501H333.624L336.59 177.257H337.851V185.984H336.863V179.353H336.777L334.05 185.984H333.095L330.368 179.353H330.283V185.984H329.294V177.257ZM341.76 186.138C341.345 186.138 340.969 186.059 340.631 185.903C340.293 185.744 340.024 185.515 339.825 185.217C339.626 184.916 339.527 184.552 339.527 184.126C339.527 183.751 339.601 183.447 339.749 183.214C339.896 182.978 340.094 182.794 340.341 182.66C340.588 182.527 340.861 182.427 341.159 182.362C341.46 182.294 341.763 182.24 342.067 182.2C342.464 182.149 342.787 182.111 343.034 182.085C343.284 182.057 343.466 182.01 343.58 181.944C343.696 181.879 343.754 181.765 343.754 181.603V181.569C343.754 181.149 343.639 180.822 343.409 180.589C343.182 180.356 342.837 180.24 342.374 180.24C341.893 180.24 341.517 180.345 341.244 180.555C340.972 180.765 340.78 180.99 340.669 181.228L339.714 180.888C339.885 180.49 340.112 180.18 340.396 179.959C340.683 179.734 340.996 179.578 341.334 179.49C341.675 179.399 342.01 179.353 342.339 179.353C342.55 179.353 342.791 179.379 343.064 179.43C343.339 179.478 343.605 179.579 343.861 179.733C344.119 179.886 344.334 180.118 344.504 180.427C344.675 180.737 344.76 181.152 344.76 181.672V185.984H343.754V185.098H343.703C343.635 185.24 343.521 185.392 343.362 185.554C343.203 185.716 342.991 185.853 342.727 185.967C342.463 186.081 342.141 186.138 341.76 186.138ZM341.913 185.234C342.311 185.234 342.646 185.156 342.919 185C343.195 184.843 343.402 184.642 343.541 184.395C343.683 184.147 343.754 183.888 343.754 183.615V182.694C343.712 182.745 343.618 182.792 343.473 182.835C343.331 182.875 343.166 182.91 342.979 182.942C342.794 182.97 342.614 182.995 342.437 183.018C342.264 183.038 342.124 183.055 342.016 183.069C341.754 183.103 341.51 183.159 341.283 183.236C341.058 183.309 340.876 183.422 340.737 183.572C340.601 183.72 340.533 183.922 340.533 184.177C340.533 184.527 340.662 184.791 340.92 184.97C341.182 185.146 341.513 185.234 341.913 185.234ZM347.009 188.439C346.838 188.439 346.686 188.424 346.553 188.396C346.419 188.37 346.327 188.345 346.276 188.319L346.532 187.433C346.776 187.495 346.992 187.518 347.179 187.501C347.367 187.484 347.533 187.4 347.678 187.25C347.826 187.102 347.961 186.862 348.083 186.53L348.27 186.018L345.85 179.439H346.941L348.747 184.655H348.816L350.622 179.439H351.713L348.935 186.939C348.81 187.277 348.655 187.557 348.47 187.778C348.286 188.003 348.071 188.169 347.827 188.277C347.586 188.385 347.313 188.439 347.009 188.439Z" fill="#7C7C7C"/>
<path d="M412.011 173.984V167.978" stroke="#7C7C7C"/>
<path d="M406.815 177.257H407.872V183.495C407.872 184.052 407.77 184.525 407.565 184.915C407.36 185.304 407.072 185.599 406.7 185.801C406.328 186.003 405.889 186.103 405.383 186.103C404.906 186.103 404.481 186.017 404.109 185.843C403.737 185.667 403.444 185.417 403.231 185.093C403.018 184.77 402.912 184.385 402.912 183.939H403.951C403.951 184.186 404.012 184.402 404.135 184.586C404.26 184.768 404.43 184.91 404.646 185.013C404.862 185.115 405.108 185.166 405.383 185.166C405.687 185.166 405.946 185.102 406.159 184.974C406.372 184.846 406.534 184.659 406.645 184.412C406.758 184.162 406.815 183.856 406.815 183.495V177.257ZM413.978 183.308V179.439H414.984V185.984H413.978V184.876H413.91C413.757 185.209 413.518 185.491 413.194 185.724C412.87 185.954 412.461 186.069 411.967 186.069C411.558 186.069 411.194 185.98 410.876 185.801C410.558 185.619 410.308 185.346 410.126 184.983C409.944 184.616 409.853 184.155 409.853 183.598V179.439H410.859V183.53C410.859 184.007 410.993 184.388 411.26 184.672C411.529 184.956 411.873 185.098 412.291 185.098C412.541 185.098 412.795 185.034 413.054 184.906C413.315 184.778 413.534 184.582 413.71 184.318C413.889 184.054 413.978 183.717 413.978 183.308ZM417.832 182.047V185.984H416.826V179.439H417.798V180.461H417.883C418.036 180.129 418.269 179.862 418.582 179.66C418.894 179.456 419.298 179.353 419.792 179.353C420.235 179.353 420.623 179.444 420.955 179.626C421.288 179.805 421.546 180.078 421.731 180.444C421.916 180.808 422.008 181.268 422.008 181.825V185.984H421.002V181.893C421.002 181.379 420.869 180.978 420.602 180.692C420.335 180.402 419.968 180.257 419.502 180.257C419.181 180.257 418.894 180.326 418.641 180.466C418.391 180.605 418.194 180.808 418.049 181.075C417.904 181.342 417.832 181.666 417.832 182.047Z" fill="#7C7C7C"/>
<path d="M483.842 173.984V167.978" stroke="#7C7C7C"/>
<path d="M480.733 177.257H481.789V183.495C481.789 184.052 481.687 184.525 481.483 184.915C481.278 185.304 480.99 185.599 480.617 185.801C480.245 186.003 479.806 186.103 479.301 186.103C478.823 186.103 478.399 186.017 478.027 185.843C477.654 185.667 477.362 185.417 477.149 185.093C476.936 184.77 476.829 184.385 476.829 183.939H477.869C477.869 184.186 477.93 184.402 478.052 184.586C478.177 184.768 478.348 184.91 478.564 185.013C478.779 185.115 479.025 185.166 479.301 185.166C479.605 185.166 479.863 185.102 480.076 184.974C480.289 184.846 480.451 184.659 480.562 184.412C480.676 184.162 480.733 183.856 480.733 183.495V177.257ZM487.896 183.308V179.439H488.902V185.984H487.896V184.876H487.828C487.674 185.209 487.436 185.491 487.112 185.724C486.788 185.954 486.379 186.069 485.885 186.069C485.475 186.069 485.112 185.98 484.794 185.801C484.475 185.619 484.225 185.346 484.044 184.983C483.862 184.616 483.771 184.155 483.771 183.598V179.439H484.777V183.53C484.777 184.007 484.91 184.388 485.177 184.672C485.447 184.956 485.791 185.098 486.208 185.098C486.458 185.098 486.713 185.034 486.971 184.906C487.233 184.778 487.451 184.582 487.627 184.318C487.806 184.054 487.896 183.717 487.896 183.308ZM491.749 177.257V185.984H490.744V177.257H491.749Z" fill="#7C7C7C"/>
<path d="M555.674 173.984V167.978" stroke="#7C7C7C"/>
<path d="M546.552 185.984H545.444L548.648 177.257H549.739L552.944 185.984H551.836L549.228 178.638H549.16L546.552 185.984ZM546.961 182.575H551.427V183.513H546.961V182.575ZM558.292 183.308V179.439H559.298V185.984H558.292V184.876H558.224C558.07 185.209 557.832 185.491 557.508 185.724C557.184 185.954 556.775 186.069 556.281 186.069C555.871 186.069 555.508 185.98 555.19 185.801C554.871 185.619 554.621 185.346 554.44 184.983C554.258 184.616 554.167 184.155 554.167 183.598V179.439H555.173V183.53C555.173 184.007 555.306 184.388 555.573 184.672C555.843 184.956 556.187 185.098 556.604 185.098C556.854 185.098 557.109 185.034 557.367 184.906C557.629 184.778 557.847 184.582 558.023 184.318C558.202 184.054 558.292 183.717 558.292 183.308ZM563.782 188.575C563.296 188.575 562.878 188.513 562.529 188.388C562.179 188.265 561.888 188.103 561.655 187.902C561.425 187.703 561.242 187.49 561.105 187.263L561.907 186.7C561.998 186.819 562.113 186.956 562.252 187.109C562.391 187.265 562.581 187.4 562.823 187.514C563.067 187.63 563.387 187.689 563.782 187.689C564.31 187.689 564.746 187.561 565.09 187.305C565.434 187.049 565.605 186.649 565.605 186.103V184.774H565.52C565.446 184.893 565.341 185.041 565.205 185.217C565.071 185.39 564.878 185.545 564.625 185.682C564.375 185.815 564.037 185.882 563.611 185.882C563.083 185.882 562.608 185.757 562.188 185.507C561.77 185.257 561.439 184.893 561.195 184.416C560.953 183.939 560.833 183.359 560.833 182.677C560.833 182.007 560.951 181.423 561.186 180.926C561.422 180.426 561.75 180.04 562.171 179.767C562.591 179.491 563.077 179.353 563.628 179.353C564.054 179.353 564.392 179.424 564.642 179.567C564.895 179.706 565.088 179.865 565.222 180.044C565.358 180.22 565.463 180.365 565.537 180.478H565.64V179.439H566.611V186.172C566.611 186.734 566.483 187.192 566.228 187.544C565.975 187.899 565.634 188.159 565.205 188.324C564.779 188.491 564.304 188.575 563.782 188.575ZM563.748 184.978C564.151 184.978 564.492 184.886 564.77 184.701C565.049 184.517 565.26 184.251 565.405 183.905C565.55 183.558 565.623 183.143 565.623 182.66C565.623 182.189 565.551 181.772 565.409 181.412C565.267 181.051 565.057 180.768 564.779 180.564C564.5 180.359 564.157 180.257 563.748 180.257C563.321 180.257 562.966 180.365 562.682 180.581C562.401 180.797 562.189 181.086 562.047 181.45C561.908 181.814 561.838 182.217 561.838 182.66C561.838 183.115 561.909 183.517 562.051 183.866C562.196 184.213 562.409 184.486 562.691 184.684C562.975 184.88 563.327 184.978 563.748 184.978Z" fill="#7C7C7C"/>
<path d="M627.505 173.984V167.978" stroke="#7C7C7C"/>
<path d="M622.36 179.439C622.309 179.007 622.102 178.672 621.738 178.433C621.374 178.194 620.928 178.075 620.4 178.075C620.014 178.075 619.676 178.138 619.386 178.263C619.099 178.388 618.874 178.559 618.712 178.778C618.553 178.997 618.474 179.245 618.474 179.524C618.474 179.757 618.529 179.957 618.64 180.125C618.754 180.29 618.899 180.427 619.075 180.538C619.251 180.646 619.435 180.736 619.629 180.807C619.822 180.875 619.999 180.93 620.161 180.973L621.048 181.211C621.275 181.271 621.528 181.353 621.806 181.459C622.087 181.564 622.356 181.707 622.612 181.889C622.87 182.068 623.083 182.298 623.251 182.579C623.418 182.861 623.502 183.206 623.502 183.615C623.502 184.086 623.379 184.513 623.132 184.893C622.887 185.274 622.529 185.576 622.058 185.801C621.589 186.025 621.019 186.138 620.349 186.138C619.724 186.138 619.183 186.037 618.725 185.835C618.271 185.633 617.913 185.352 617.651 184.991C617.393 184.63 617.247 184.211 617.212 183.734H618.303C618.332 184.064 618.443 184.336 618.636 184.552C618.832 184.765 619.079 184.924 619.377 185.03C619.678 185.132 620.002 185.183 620.349 185.183C620.752 185.183 621.114 185.118 621.435 184.987C621.757 184.853 622.011 184.669 622.198 184.433C622.386 184.194 622.48 183.916 622.48 183.598C622.48 183.308 622.399 183.072 622.237 182.89C622.075 182.709 621.862 182.561 621.597 182.447C621.333 182.334 621.048 182.234 620.741 182.149L619.667 181.842C618.985 181.646 618.445 181.366 618.048 181.003C617.65 180.639 617.451 180.163 617.451 179.575C617.451 179.086 617.583 178.66 617.847 178.297C618.114 177.93 618.472 177.646 618.921 177.444C619.373 177.24 619.877 177.138 620.434 177.138C620.997 177.138 621.497 177.238 621.934 177.44C622.372 177.639 622.718 177.912 622.974 178.258C623.232 178.605 623.369 178.998 623.383 179.439H622.36ZM627.848 186.12C627.217 186.12 626.673 185.981 626.216 185.703C625.761 185.422 625.41 185.03 625.163 184.527C624.919 184.021 624.797 183.433 624.797 182.763C624.797 182.092 624.919 181.501 625.163 180.99C625.41 180.476 625.754 180.075 626.194 179.788C626.638 179.498 627.155 179.353 627.745 179.353C628.086 179.353 628.423 179.41 628.755 179.524C629.088 179.638 629.39 179.822 629.663 180.078C629.936 180.331 630.153 180.666 630.315 181.084C630.477 181.501 630.558 182.015 630.558 182.626V183.052H625.513V182.183H629.535C629.535 181.814 629.461 181.484 629.314 181.194C629.169 180.905 628.961 180.676 628.692 180.508C628.424 180.341 628.109 180.257 627.745 180.257C627.345 180.257 626.998 180.356 626.706 180.555C626.416 180.751 626.193 181.007 626.037 181.322C625.88 181.638 625.802 181.976 625.802 182.336V182.916C625.802 183.41 625.888 183.829 626.058 184.173C626.231 184.514 626.471 184.774 626.778 184.953C627.085 185.129 627.442 185.217 627.848 185.217C628.112 185.217 628.351 185.18 628.564 185.106C628.78 185.03 628.966 184.916 629.122 184.765C629.278 184.612 629.399 184.422 629.484 184.194L630.456 184.467C630.353 184.797 630.182 185.086 629.94 185.336C629.699 185.584 629.4 185.777 629.045 185.916C628.69 186.052 628.291 186.12 627.848 186.12ZM632.088 188.439V179.439H633.059V180.478H633.179C633.253 180.365 633.355 180.22 633.486 180.044C633.619 179.865 633.809 179.706 634.057 179.567C634.307 179.424 634.645 179.353 635.071 179.353C635.622 179.353 636.108 179.491 636.528 179.767C636.949 180.042 637.277 180.433 637.513 180.939C637.748 181.444 637.866 182.041 637.866 182.728C637.866 183.422 637.748 184.022 637.513 184.531C637.277 185.037 636.95 185.429 636.532 185.707C636.115 185.983 635.633 186.12 635.088 186.12C634.667 186.12 634.331 186.051 634.078 185.912C633.825 185.77 633.63 185.609 633.494 185.43C633.358 185.248 633.253 185.098 633.179 184.978H633.094V188.439H632.088ZM633.076 182.711C633.076 183.206 633.149 183.642 633.294 184.02C633.439 184.395 633.65 184.689 633.929 184.902C634.207 185.112 634.548 185.217 634.951 185.217C635.372 185.217 635.723 185.106 636.004 184.885C636.288 184.66 636.501 184.359 636.643 183.981C636.788 183.601 636.861 183.177 636.861 182.711C636.861 182.251 636.79 181.836 636.647 181.467C636.508 181.095 636.297 180.801 636.013 180.585C635.731 180.366 635.378 180.257 634.951 180.257C634.542 180.257 634.199 180.361 633.92 180.568C633.642 180.772 633.432 181.059 633.29 181.429C633.147 181.795 633.076 182.223 633.076 182.711Z" fill="#7C7C7C"/>
<path d="M699.337 173.984V167.978" stroke="#7C7C7C"/>
<path d="M698.316 181.62C698.316 182.541 698.15 183.336 697.818 184.007C697.485 184.677 697.029 185.194 696.45 185.558C695.87 185.922 695.208 186.103 694.464 186.103C693.72 186.103 693.058 185.922 692.478 185.558C691.899 185.194 691.443 184.677 691.11 184.007C690.778 183.336 690.612 182.541 690.612 181.62C690.612 180.7 690.778 179.905 691.11 179.234C691.443 178.564 691.899 178.047 692.478 177.683C693.058 177.319 693.72 177.138 694.464 177.138C695.208 177.138 695.87 177.319 696.45 177.683C697.029 178.047 697.485 178.564 697.818 179.234C698.15 179.905 698.316 180.7 698.316 181.62ZM697.294 181.62C697.294 180.865 697.167 180.227 696.914 179.707C696.664 179.187 696.325 178.794 695.896 178.527C695.47 178.26 694.992 178.126 694.464 178.126C693.936 178.126 693.457 178.26 693.028 178.527C692.602 178.794 692.262 179.187 692.01 179.707C691.76 180.227 691.635 180.865 691.635 181.62C691.635 182.376 691.76 183.014 692.01 183.534C692.262 184.054 692.602 184.447 693.028 184.714C693.457 184.981 693.936 185.115 694.464 185.115C694.992 185.115 695.47 184.981 695.896 184.714C696.325 184.447 696.664 184.054 696.914 183.534C697.167 183.014 697.294 182.376 697.294 181.62ZM702.616 186.12C702.002 186.12 701.474 185.976 701.031 185.686C700.588 185.396 700.247 184.997 700.008 184.488C699.769 183.98 699.65 183.399 699.65 182.745C699.65 182.081 699.772 181.494 700.017 180.986C700.264 180.474 700.608 180.075 701.048 179.788C701.491 179.498 702.008 179.353 702.599 179.353C703.059 179.353 703.474 179.439 703.843 179.609C704.213 179.78 704.515 180.018 704.751 180.325C704.987 180.632 705.133 180.99 705.19 181.399H704.184C704.108 181.101 703.937 180.836 703.673 180.606C703.412 180.373 703.059 180.257 702.616 180.257C702.224 180.257 701.88 180.359 701.585 180.564C701.292 180.765 701.064 181.051 700.899 181.42C700.737 181.787 700.656 182.217 700.656 182.711C700.656 183.217 700.735 183.657 700.894 184.032C701.056 184.407 701.284 184.699 701.576 184.906C701.872 185.113 702.218 185.217 702.616 185.217C702.877 185.217 703.115 185.172 703.328 185.081C703.541 184.99 703.721 184.859 703.869 184.689C704.017 184.518 704.122 184.314 704.184 184.075H705.19C705.133 184.461 704.992 184.809 704.768 185.119C704.546 185.426 704.252 185.67 703.886 185.852C703.522 186.031 703.099 186.12 702.616 186.12ZM709.507 179.439V180.291H706.115V179.439H709.507ZM707.103 177.87H708.109V184.109C708.109 184.393 708.15 184.606 708.233 184.748C708.318 184.888 708.426 184.981 708.556 185.03C708.69 185.075 708.831 185.098 708.978 185.098C709.089 185.098 709.18 185.092 709.251 185.081C709.322 185.067 709.379 185.055 709.421 185.047L709.626 185.95C709.558 185.976 709.463 186.001 709.34 186.027C709.218 186.055 709.064 186.069 708.876 186.069C708.592 186.069 708.314 186.008 708.041 185.886C707.771 185.764 707.546 185.578 707.367 185.328C707.191 185.078 707.103 184.763 707.103 184.382V177.87Z" fill="#7C7C7C"/>
<path d="M771.168 173.984V167.978" stroke="#7C7C7C"/>
<path d="M768.486 177.257V185.984H767.463L762.708 179.132H762.622V185.984H761.566V177.257H762.588L767.361 184.126H767.446V177.257H768.486ZM773.124 186.12C772.533 186.12 772.014 185.98 771.568 185.699C771.125 185.417 770.778 185.024 770.528 184.518C770.281 184.013 770.158 183.422 770.158 182.745C770.158 182.064 770.281 181.468 770.528 180.96C770.778 180.451 771.125 180.057 771.568 179.775C772.014 179.494 772.533 179.353 773.124 179.353C773.714 179.353 774.231 179.494 774.675 179.775C775.121 180.057 775.467 180.451 775.714 180.96C775.964 181.468 776.089 182.064 776.089 182.745C776.089 183.422 775.964 184.013 775.714 184.518C775.467 185.024 775.121 185.417 774.675 185.699C774.231 185.98 773.714 186.12 773.124 186.12ZM773.124 185.217C773.572 185.217 773.942 185.102 774.231 184.872C774.521 184.642 774.736 184.339 774.875 183.964C775.014 183.589 775.084 183.183 775.084 182.745C775.084 182.308 775.014 181.9 774.875 181.522C774.736 181.145 774.521 180.839 774.231 180.606C773.942 180.373 773.572 180.257 773.124 180.257C772.675 180.257 772.305 180.373 772.016 180.606C771.726 180.839 771.511 181.145 771.372 181.522C771.233 181.9 771.163 182.308 771.163 182.745C771.163 183.183 771.233 183.589 771.372 183.964C771.511 184.339 771.726 184.642 772.016 184.872C772.305 185.102 772.675 185.217 773.124 185.217ZM782.742 179.439L780.322 185.984H779.299L776.879 179.439H777.97L779.777 184.655H779.845L781.652 179.439H782.742Z" fill="#7C7C7C"/>
<path d="M843 173.984V167.978" stroke="#7C7C7C"/>
<path d="M820.399 185.984H817.705V177.257H820.518C821.365 177.257 822.089 177.432 822.691 177.781C823.294 178.128 823.755 178.626 824.076 179.277C824.397 179.924 824.558 180.7 824.558 181.603C824.558 182.513 824.396 183.295 824.072 183.951C823.748 184.605 823.276 185.108 822.657 185.46C822.038 185.809 821.285 185.984 820.399 185.984ZM818.762 185.047H820.33C821.052 185.047 821.65 184.907 822.124 184.629C822.599 184.351 822.953 183.954 823.186 183.44C823.419 182.926 823.535 182.314 823.535 181.603C823.535 180.899 823.42 180.292 823.19 179.784C822.96 179.272 822.616 178.88 822.159 178.608C821.701 178.332 821.132 178.194 820.45 178.194H818.762V185.047ZM828.938 186.12C828.308 186.12 827.764 185.981 827.306 185.703C826.852 185.422 826.501 185.03 826.254 184.527C826.009 184.021 825.887 183.433 825.887 182.763C825.887 182.092 826.009 181.501 826.254 180.99C826.501 180.476 826.845 180.075 827.285 179.788C827.728 179.498 828.245 179.353 828.836 179.353C829.177 179.353 829.514 179.41 829.846 179.524C830.178 179.638 830.481 179.822 830.754 180.078C831.026 180.331 831.244 180.666 831.406 181.084C831.568 181.501 831.649 182.015 831.649 182.626V183.052H826.603V182.183H830.626C830.626 181.814 830.552 181.484 830.404 181.194C830.259 180.905 830.052 180.676 829.782 180.508C829.515 180.341 829.2 180.257 828.836 180.257C828.436 180.257 828.089 180.356 827.796 180.555C827.507 180.751 827.284 181.007 827.127 181.322C826.971 181.638 826.893 181.976 826.893 182.336V182.916C826.893 183.41 826.978 183.829 827.149 184.173C827.322 184.514 827.562 184.774 827.869 184.953C828.176 185.129 828.532 185.217 828.938 185.217C829.203 185.217 829.441 185.18 829.654 185.106C829.87 185.03 830.056 184.916 830.213 184.765C830.369 184.612 830.49 184.422 830.575 184.194L831.546 184.467C831.444 184.797 831.272 185.086 831.031 185.336C830.789 185.584 830.491 185.777 830.136 185.916C829.781 186.052 829.382 186.12 828.938 186.12ZM835.838 186.12C835.224 186.12 834.696 185.976 834.252 185.686C833.809 185.396 833.468 184.997 833.23 184.488C832.991 183.98 832.872 183.399 832.872 182.745C832.872 182.081 832.994 181.494 833.238 180.986C833.485 180.474 833.829 180.075 834.269 179.788C834.713 179.498 835.23 179.353 835.821 179.353C836.281 179.353 836.696 179.439 837.065 179.609C837.434 179.78 837.737 180.018 837.972 180.325C838.208 180.632 838.355 180.99 838.411 181.399H837.406C837.329 181.101 837.159 180.836 836.894 180.606C836.633 180.373 836.281 180.257 835.838 180.257C835.446 180.257 835.102 180.359 834.806 180.564C834.514 180.765 834.285 181.051 834.12 181.42C833.958 181.787 833.877 182.217 833.877 182.711C833.877 183.217 833.957 183.657 834.116 184.032C834.278 184.407 834.505 184.699 834.798 184.906C835.093 185.113 835.44 185.217 835.838 185.217C836.099 185.217 836.336 185.172 836.549 185.081C836.762 184.99 836.943 184.859 837.09 184.689C837.238 184.518 837.343 184.314 837.406 184.075H838.411C838.355 184.461 838.214 184.809 837.99 185.119C837.768 185.426 837.474 185.67 837.107 185.852C836.744 186.031 836.321 186.12 835.838 186.12Z" fill="#7C7C7C"/>
<path d="M34.5682 168.084C33.9261 168.084 33.3793 167.91 32.9276 167.56C32.4759 167.208 32.1307 166.698 31.892 166.03C31.6534 165.36 31.5341 164.55 31.5341 163.601C31.5341 162.658 31.6534 161.853 31.892 161.185C32.1335 160.515 32.4801 160.003 32.9318 159.651C33.3864 159.296 33.9318 159.118 34.5682 159.118C35.2045 159.118 35.7486 159.296 36.2003 159.651C36.6548 160.003 37.0014 160.515 37.2401 161.185C37.4815 161.853 37.6023 162.658 37.6023 163.601C37.6023 164.55 37.483 165.36 37.2443 166.03C37.0057 166.698 36.6605 167.208 36.2088 167.56C35.7571 167.91 35.2102 168.084 34.5682 168.084ZM34.5682 167.147C35.2045 167.147 35.6989 166.84 36.0511 166.226C36.4034 165.613 36.5795 164.738 36.5795 163.601C36.5795 162.846 36.4986 162.202 36.3366 161.671C36.1776 161.14 35.9474 160.735 35.6463 160.456C35.348 160.178 34.9886 160.039 34.5682 160.039C33.9375 160.039 33.4446 160.35 33.0895 160.972C32.7344 161.591 32.5568 162.468 32.5568 163.601C32.5568 164.357 32.6364 164.999 32.7955 165.528C32.9545 166.056 33.1832 166.458 33.4815 166.733C33.7827 167.009 34.1449 167.147 34.5682 167.147Z" fill="#7C7C7C"/>
<path d="M17.1552 127.923V127.156L20.0359 124.002C20.3739 123.633 20.6523 123.312 20.8711 123.039C21.0898 122.764 21.2518 122.505 21.3569 122.264C21.4648 122.019 21.5188 121.764 21.5188 121.497C21.5188 121.19 21.4449 120.924 21.2972 120.7C21.1523 120.475 20.9535 120.302 20.7006 120.18C20.4478 120.058 20.1637 119.997 19.8484 119.997C19.5131 119.997 19.2205 120.066 18.9705 120.205C18.7234 120.342 18.5316 120.533 18.3952 120.781C18.2617 121.028 18.1949 121.318 18.1949 121.65H17.1893C17.1893 121.139 17.3072 120.69 17.543 120.303C17.7788 119.917 18.0998 119.616 18.506 119.4C18.9151 119.184 19.3739 119.076 19.8824 119.076C20.3938 119.076 20.8469 119.184 21.2418 119.4C21.6367 119.616 21.9464 119.907 22.1708 120.273C22.3952 120.64 22.5074 121.048 22.5074 121.497C22.5074 121.818 22.4492 122.131 22.3327 122.438C22.2191 122.742 22.0202 123.082 21.7361 123.457C21.4549 123.829 21.0643 124.283 20.5643 124.82L18.604 126.917V126.985H22.6609V127.923H17.1552ZM27.1481 128.042C26.6481 128.042 26.1978 127.943 25.7972 127.744C25.3966 127.545 25.0756 127.272 24.8341 126.925C24.5927 126.579 24.4606 126.184 24.4378 125.741H25.4606C25.5003 126.136 25.6793 126.462 25.9975 126.721C26.3185 126.977 26.702 127.104 27.1481 127.104C27.506 127.104 27.8242 127.021 28.1026 126.853C28.3839 126.685 28.604 126.455 28.7631 126.163C28.9251 125.867 29.006 125.533 29.006 125.161C29.006 124.781 28.9222 124.441 28.7546 124.143C28.5898 123.842 28.3626 123.604 28.0728 123.431C27.783 123.258 27.452 123.17 27.0799 123.167C26.8128 123.164 26.5387 123.205 26.2574 123.291C25.9762 123.373 25.7447 123.479 25.5628 123.61L24.5742 123.491L25.1026 119.195H29.6367V120.133H25.989L25.6822 122.707H25.7333C25.9123 122.565 26.1367 122.447 26.4066 122.353C26.6765 122.259 26.9577 122.212 27.2503 122.212C27.7844 122.212 28.2603 122.34 28.6779 122.596C29.0984 122.849 29.4279 123.195 29.6665 123.636C29.908 124.076 30.0288 124.579 30.0288 125.144C30.0288 125.701 29.9038 126.198 29.6538 126.636C29.4066 127.07 29.0657 127.414 28.631 127.667C28.1964 127.917 27.702 128.042 27.1481 128.042ZM34.5682 128.042C33.9261 128.042 33.3792 127.867 32.9275 127.518C32.4758 127.166 32.1307 126.656 31.892 125.988C31.6534 125.318 31.5341 124.508 31.5341 123.559C31.5341 122.616 31.6534 121.81 31.892 121.143C32.1335 120.472 32.4801 119.961 32.9318 119.609C33.3864 119.254 33.9318 119.076 34.5682 119.076C35.2045 119.076 35.7486 119.254 36.2003 119.609C36.6548 119.961 37.0014 120.472 37.24 121.143C37.4815 121.81 37.6023 122.616 37.6023 123.559C37.6023 124.508 37.4829 125.318 37.2443 125.988C37.0057 126.656 36.6605 127.166 36.2088 127.518C35.7571 127.867 35.2102 128.042 34.5682 128.042ZM34.5682 127.104C35.2045 127.104 35.6989 126.798 36.0511 126.184C36.4034 125.57 36.5795 124.695 36.5795 123.559C36.5795 122.803 36.4986 122.16 36.3366 121.629C36.1775 121.097 35.9474 120.693 35.6463 120.414C35.348 120.136 34.9886 119.997 34.5682 119.997C33.9375 119.997 33.4446 120.308 33.0895 120.93C32.7344 121.549 32.5568 122.425 32.5568 123.559C32.5568 124.315 32.6364 124.957 32.7954 125.485C32.9545 126.014 33.1832 126.416 33.4815 126.691C33.7827 126.967 34.1449 127.104 34.5682 127.104Z" fill="#7C7C7C"/>
<path d="M19.6481 87.9996C19.1481 87.9996 18.6978 87.9002 18.2972 87.7013C17.8966 87.5024 17.5756 87.2297 17.3341 86.8831C17.0927 86.5365 16.9606 86.1416 16.9378 85.6985H17.9606C18.0003 86.0933 18.1793 86.4201 18.4975 86.6786C18.8185 86.9343 19.202 87.0621 19.6481 87.0621C20.006 87.0621 20.3242 86.9783 20.6026 86.8107C20.8839 86.6431 21.104 86.4129 21.2631 86.1203C21.4251 85.8249 21.506 85.4911 21.506 85.1189C21.506 84.7382 21.4222 84.3987 21.2546 84.1004C21.0898 83.7993 20.8626 83.5621 20.5728 83.3888C20.283 83.2155 19.952 83.1274 19.5799 83.1246C19.3128 83.1218 19.0387 83.1629 18.7574 83.2482C18.4762 83.3306 18.2447 83.4371 18.0628 83.5678L17.0742 83.4485L17.6026 79.153H22.1367V80.0905H18.489L18.1822 82.6644H18.2333C18.4123 82.5223 18.6367 82.4044 18.9066 82.3107C19.1765 82.2169 19.4577 82.1701 19.7503 82.1701C20.2844 82.1701 20.7603 82.2979 21.1779 82.5536C21.5984 82.8064 21.9279 83.153 22.1665 83.5933C22.408 84.0337 22.5288 84.5365 22.5288 85.1019C22.5288 85.6587 22.4038 86.1558 22.1538 86.5933C21.9066 87.028 21.5657 87.3718 21.131 87.6246C20.6964 87.8746 20.202 87.9996 19.6481 87.9996ZM27.0682 87.9996C26.4261 87.9996 25.8792 87.8249 25.4275 87.4754C24.9758 87.1232 24.6307 86.6132 24.392 85.9456C24.1534 85.2752 24.0341 84.4655 24.0341 83.5166C24.0341 82.5735 24.1534 81.7681 24.392 81.1004C24.6335 80.43 24.9801 79.9186 25.4318 79.5664C25.8864 79.2112 26.4318 79.0337 27.0682 79.0337C27.7045 79.0337 28.2486 79.2112 28.7003 79.5664C29.1548 79.9186 29.5014 80.43 29.74 81.1004C29.9815 81.7681 30.1023 82.5735 30.1023 83.5166C30.1023 84.4655 29.9829 85.2752 29.7443 85.9456C29.5057 86.6132 29.1605 87.1232 28.7088 87.4754C28.2571 87.8249 27.7102 87.9996 27.0682 87.9996ZM27.0682 87.0621C27.7045 87.0621 28.1989 86.7553 28.5511 86.1416C28.9034 85.528 29.0795 84.653 29.0795 83.5166C29.0795 82.761 28.9986 82.1175 28.8366 81.5862C28.6775 81.055 28.4474 80.6502 28.1463 80.3718C27.848 80.0933 27.4886 79.9541 27.0682 79.9541C26.4375 79.9541 25.9446 80.2652 25.5895 80.8874C25.2344 81.5067 25.0568 82.3831 25.0568 83.5166C25.0568 84.2723 25.1364 84.9144 25.2954 85.4428C25.4545 85.9712 25.6832 86.3732 25.9815 86.6487C26.2827 86.9243 26.6449 87.0621 27.0682 87.0621ZM34.5682 87.9996C33.9261 87.9996 33.3792 87.8249 32.9275 87.4754C32.4758 87.1232 32.1307 86.6132 31.892 85.9456C31.6534 85.2752 31.5341 84.4655 31.5341 83.5166C31.5341 82.5735 31.6534 81.7681 31.892 81.1004C32.1335 80.43 32.4801 79.9186 32.9318 79.5664C33.3864 79.2112 33.9318 79.0337 34.5682 79.0337C35.2045 79.0337 35.7486 79.2112 36.2003 79.5664C36.6548 79.9186 37.0014 80.43 37.24 81.1004C37.4815 81.7681 37.6023 82.5735 37.6023 83.5166C37.6023 84.4655 37.4829 85.2752 37.2443 85.9456C37.0057 86.6132 36.6605 87.1232 36.2088 87.4754C35.7571 87.8249 35.2102 87.9996 34.5682 87.9996ZM34.5682 87.0621C35.2045 87.0621 35.6989 86.7553 36.0511 86.1416C36.4034 85.528 36.5795 84.653 36.5795 83.5166C36.5795 82.761 36.4986 82.1175 36.3366 81.5862C36.1775 81.055 35.9474 80.6502 35.6463 80.3718C35.348 80.0933 34.9886 79.9541 34.5682 79.9541C33.9375 79.9541 33.4446 80.2652 33.0895 80.8874C32.7344 81.5067 32.5568 82.3831 32.5568 83.5166C32.5568 84.2723 32.6364 84.9144 32.7954 85.4428C32.9545 85.9712 33.1832 86.3732 33.4815 86.6487C33.7827 86.9243 34.1449 87.0621 34.5682 87.0621Z" fill="#7C7C7C"/>
<path d="M17.9552 47.8379L21.8587 40.1163V40.0481H17.3587V39.1106H22.9496V40.0993L19.0632 47.8379H17.9552ZM27.1481 47.9572C26.6481 47.9572 26.1978 47.8578 25.7972 47.6589C25.3967 47.4601 25.0756 47.1873 24.8342 46.8408C24.5927 46.4942 24.4606 46.0993 24.4378 45.6561H25.4606C25.5003 46.051 25.6793 46.3777 25.9975 46.6362C26.3185 46.8919 26.7021 47.0197 27.1481 47.0197C27.506 47.0197 27.8242 46.9359 28.1026 46.7683C28.3839 46.6007 28.604 46.3706 28.7631 46.078C28.9251 45.7825 29.006 45.4487 29.006 45.0765C29.006 44.6959 28.9222 44.3564 28.7546 44.0581C28.5898 43.7569 28.3626 43.5197 28.0728 43.3464C27.783 43.1731 27.4521 43.0851 27.0799 43.0822C26.8128 43.0794 26.5387 43.1206 26.2574 43.2058C25.9762 43.2882 25.7447 43.3947 25.5628 43.5254L24.5742 43.4061L25.1026 39.1106H29.6367V40.0481H25.989L25.6822 42.622H25.7333C25.9123 42.48 26.1367 42.3621 26.4066 42.2683C26.6765 42.1746 26.9577 42.1277 27.2503 42.1277C27.7844 42.1277 28.2603 42.2555 28.6779 42.5112C29.0984 42.764 29.4279 43.1106 29.6665 43.551C29.908 43.9913 30.0288 44.4942 30.0288 45.0595C30.0288 45.6163 29.9038 46.1135 29.6538 46.551C29.4066 46.9856 29.0657 47.3294 28.631 47.5822C28.1964 47.8322 27.7021 47.9572 27.1481 47.9572ZM34.5682 47.9572C33.9261 47.9572 33.3793 47.7825 32.9275 47.4331C32.4758 47.0808 32.1307 46.5709 31.892 45.9033C31.6534 45.2328 31.5341 44.4231 31.5341 43.4743C31.5341 42.5311 31.6534 41.7257 31.892 41.0581C32.1335 40.3876 32.4801 39.8763 32.9318 39.524C33.3864 39.1689 33.9318 38.9913 34.5682 38.9913C35.2045 38.9913 35.7486 39.1689 36.2003 39.524C36.6548 39.8763 37.0014 40.3876 37.24 41.0581C37.4815 41.7257 37.6023 42.5311 37.6023 43.4743C37.6023 44.4231 37.4829 45.2328 37.2443 45.9033C37.0057 46.5709 36.6605 47.0808 36.2088 47.4331C35.7571 47.7825 35.2102 47.9572 34.5682 47.9572ZM34.5682 47.0197C35.2045 47.0197 35.6989 46.7129 36.0511 46.0993C36.4034 45.4856 36.5795 44.6106 36.5795 43.4743C36.5795 42.7186 36.4986 42.0751 36.3366 41.5439C36.1775 41.0126 35.9474 40.6078 35.6463 40.3294C35.348 40.051 34.9886 39.9118 34.5682 39.9118C33.9375 39.9118 33.4446 40.2229 33.0895 40.845C32.7344 41.4643 32.5568 42.3408 32.5568 43.4743C32.5568 44.23 32.6364 44.872 32.7954 45.4004C32.9545 45.9288 33.1832 46.3308 33.4815 46.6064C33.7827 46.8819 34.1449 47.0197 34.5682 47.0197Z" fill="#7C7C7C"/>
<path d="M14.2116 3.27273V12H13.1548V4.38068H13.1037L10.973 5.79545V4.72159L13.1548 3.27273H14.2116ZM19.5682 12.1193C18.9261 12.1193 18.3793 11.9446 17.9276 11.5952C17.4759 11.2429 17.1307 10.733 16.892 10.0653C16.6534 9.39489 16.5341 8.58523 16.5341 7.63636C16.5341 6.69318 16.6534 5.88778 16.892 5.22017C17.1335 4.54972 17.4801 4.03835 17.9318 3.68608C18.3864 3.33097 18.9318 3.15341 19.5682 3.15341C20.2045 3.15341 20.7486 3.33097 21.2003 3.68608C21.6548 4.03835 22.0014 4.54972 22.2401 5.22017C22.4815 5.88778 22.6023 6.69318 22.6023 7.63636C22.6023 8.58523 22.483 9.39489 22.2443 10.0653C22.0057 10.733 21.6605 11.2429 21.2088 11.5952C20.7571 11.9446 20.2102 12.1193 19.5682 12.1193ZM19.5682 11.1818C20.2045 11.1818 20.6989 10.875 21.0511 10.2614C21.4034 9.64773 21.5795 8.77273 21.5795 7.63636C21.5795 6.88068 21.4986 6.23722 21.3366 5.70597C21.1776 5.17472 20.9474 4.76989 20.6463 4.49148C20.348 4.21307 19.9886 4.07386 19.5682 4.07386C18.9375 4.07386 18.4446 4.38494 18.0895 5.0071C17.7344 5.62642 17.5568 6.50284 17.5568 7.63636C17.5568 8.39205 17.6364 9.03409 17.7955 9.5625C17.9545 10.0909 18.1832 10.4929 18.4815 10.7685C18.7827 11.044 19.1449 11.1818 19.5682 11.1818ZM27.0682 12.1193C26.4261 12.1193 25.8793 11.9446 25.4276 11.5952C24.9759 11.2429 24.6307 10.733 24.392 10.0653C24.1534 9.39489 24.0341 8.58523 24.0341 7.63636C24.0341 6.69318 24.1534 5.88778 24.392 5.22017C24.6335 4.54972 24.9801 4.03835 25.4318 3.68608C25.8864 3.33097 26.4318 3.15341 27.0682 3.15341C27.7045 3.15341 28.2486 3.33097 28.7003 3.68608C29.1548 4.03835 29.5014 4.54972 29.7401 5.22017C29.9815 5.88778 30.1023 6.69318 30.1023 7.63636C30.1023 8.58523 29.983 9.39489 29.7443 10.0653C29.5057 10.733 29.1605 11.2429 28.7088 11.5952C28.2571 11.9446 27.7102 12.1193 27.0682 12.1193ZM27.0682 11.1818C27.7045 11.1818 28.1989 10.875 28.5511 10.2614C28.9034 9.64773 29.0795 8.77273 29.0795 7.63636C29.0795 6.88068 28.9986 6.23722 28.8366 5.70597C28.6776 5.17472 28.4474 4.76989 28.1463 4.49148C27.848 4.21307 27.4886 4.07386 27.0682 4.07386C26.4375 4.07386 25.9446 4.38494 25.5895 5.0071C25.2344 5.62642 25.0568 6.50284 25.0568 7.63636C25.0568 8.39205 25.1364 9.03409 25.2955 9.5625C25.4545 10.0909 25.6832 10.4929 25.9815 10.7685C26.2827 11.044 26.6449 11.1818 27.0682 11.1818ZM34.5682 12.1193C33.9261 12.1193 33.3793 11.9446 32.9276 11.5952C32.4759 11.2429 32.1307 10.733 31.892 10.0653C31.6534 9.39489 31.5341 8.58523 31.5341 7.63636C31.5341 6.69318 31.6534 5.88778 31.892 5.22017C32.1335 4.54972 32.4801 4.03835 32.9318 3.68608C33.3864 3.33097 33.9318 3.15341 34.5682 3.15341C35.2045 3.15341 35.7486 3.33097 36.2003 3.68608C36.6548 4.03835 37.0014 4.54972 37.2401 5.22017C37.4815 5.88778 37.6023 6.69318 37.6023 7.63636C37.6023 8.58523 37.483 9.39489 37.2443 10.0653C37.0057 10.733 36.6605 11.2429 36.2088 11.5952C35.7571 11.9446 35.2102 12.1193 34.5682 12.1193ZM34.5682 11.1818C35.2045 11.1818 35.6989 10.875 36.0511 10.2614C36.4034 9.64773 36.5795 8.77273 36.5795 7.63636C36.5795 6.88068 36.4986 6.23722 36.3366 5.70597C36.1776 5.17472 35.9474 4.76989 35.6463 4.49148C35.348 4.21307 34.9886 4.07386 34.5682 4.07386C33.9375 4.07386 33.4446 4.38494 33.0895 5.0071C32.7344 5.62642 32.5568 6.50284 32.5568 7.63636C32.5568 8.39205 32.6364 9.03409 32.7955 9.5625C32.9545 10.0909 33.1832 10.4929 33.4815 10.7685C33.7827 11.044 34.1449 11.1818 34.5682 11.1818Z" fill="#7C7C7C"/>
<path d="M52.8527 167.978H843" stroke="#3C3C3C"/>
<path d="M52.8527 127.935H843" stroke="#3C3C3C"/>
<path d="M52.8527 87.893H843" stroke="#3C3C3C"/>
<path d="M52.8527 47.8507H843" stroke="#3C3C3C"/>
<path d="M52.8527 7.80831H843" stroke="#3C3C3C"/>
<path d="M52.8527 144.593L124.684 113.2L196.516 87.893L268.347 53.7769L340.179 119.286L412.011 29.271L483.842 108.074L555.674 76.8413L627.505 116.563L699.337 22.5439L771.168 161.09L843 75.3998" stroke="#C1EF00"/>
<path d="M52.8527 95.2608L124.684 164.294L196.516 112.399L268.347 32.7947L340.179 7.80831L412.011 48.8117L483.842 124.892L555.674 51.6947L627.505 127.775L699.337 156.606L771.168 14.0549L843 44.1668" stroke="#E8502F"/>
</svg>
