<svg width="174" height="170" viewBox="0 0 174 170" fill="none" xmlns="http://www.w3.org/2000/svg">
<mask id="path-1-inside-1_1_547" fill="white">
<path d="M4.37387 89.9649C3.46346 75.5257 6.44742 61.1069 13.014 48.2149C19.5805 35.323 29.4887 24.4311 41.7033 16.6771L85.0001 84.8814L4.37387 89.9649Z"/>
</mask>
<path d="M4.37387 89.9649C3.46346 75.5257 6.44742 61.1069 13.014 48.2149C19.5805 35.323 29.4887 24.4311 41.7033 16.6771L85.0001 84.8814L4.37387 89.9649Z" fill="#303030" stroke="#494949" stroke-width="1.3136" mask="url(#path-1-inside-1_1_547)"/>
<g filter="url(#filter0_d_1_547)">
<mask id="path-2-inside-2_1_547" fill="white">
<path d="M41.7062 16.6752C53.9211 8.92174 67.9941 4.59086 82.4549 4.13505C96.9156 3.67923 111.233 7.1152 123.912 14.084C136.591 21.0528 147.166 31.2987 154.532 43.7511C161.898 56.2036 165.785 70.4057 165.786 84.8736L85.0001 84.8813L41.7062 16.6752Z"/>
</mask>
<path d="M41.7062 16.6752C53.9211 8.92174 67.9941 4.59086 82.4549 4.13505C96.9156 3.67923 111.233 7.1152 123.912 14.084C136.591 21.0528 147.166 31.2987 154.532 43.7511C161.898 56.2036 165.785 70.4057 165.786 84.8736L85.0001 84.8813L41.7062 16.6752Z" fill="#C4C7FA"/>
<path d="M41.7062 16.6752C53.9211 8.92174 67.9941 4.59086 82.4549 4.13505C96.9156 3.67923 111.233 7.1152 123.912 14.084C136.591 21.0528 147.166 31.2987 154.532 43.7511C161.898 56.2036 165.785 70.4057 165.786 84.8736L85.0001 84.8813L41.7062 16.6752Z" stroke="#E4E4E4" stroke-width="1.3136" mask="url(#path-2-inside-2_1_547)"/>
</g>
<mask id="path-3-inside-3_1_547" fill="white">
<path d="M165.786 84.8814C165.786 102.248 160.19 119.152 149.827 133.088C139.465 147.023 124.887 157.249 108.256 162.248L85.0001 84.8814L165.786 84.8814Z"/>
</mask>
<path d="M165.786 84.8814C165.786 102.248 160.19 119.152 149.827 133.088C139.465 147.023 124.887 157.249 108.256 162.248L85.0001 84.8814L165.786 84.8814Z" fill="#303030" stroke="#494949" stroke-width="1.3136" mask="url(#path-3-inside-3_1_547)"/>
<mask id="path-4-inside-4_1_547" fill="white">
<path d="M75.124 165.062C56.2896 162.742 38.8729 153.866 25.928 139.99C12.983 126.114 5.33607 108.123 4.32791 89.1733L85.0001 84.8814L75.124 165.062Z"/>
</mask>
<path d="M75.124 165.062C56.2896 162.742 38.8729 153.866 25.928 139.99C12.983 126.114 5.33607 108.123 4.32791 89.1733L85.0001 84.8814L75.124 165.062Z" fill="#303030" stroke="#494949" stroke-width="1.3136" mask="url(#path-4-inside-4_1_547)"/>
<mask id="path-5-inside-5_1_547" fill="white">
<path d="M109.936 161.723C98.6243 165.394 86.6423 166.522 74.8447 165.027L85 84.8813L109.936 161.723Z"/>
</mask>
<path d="M109.936 161.723C98.6243 165.394 86.6423 166.522 74.8447 165.027L85 84.8813L109.936 161.723Z" fill="#303030" stroke="#494949" stroke-width="1.3136" mask="url(#path-5-inside-5_1_547)"/>
<path d="M98.9929 31.5009C99.8889 30.7262 100.594 30.0916 101.107 29.5969C101.63 29.0929 102.064 28.5702 102.409 28.0289C102.754 27.4876 102.927 26.9462 102.927 26.4049C102.927 25.8449 102.792 25.4062 102.521 25.0889C102.26 24.7716 101.844 24.6129 101.275 24.6129C100.724 24.6129 100.295 24.7902 99.9869 25.1449C99.6883 25.4902 99.5296 25.9569 99.5109 26.5449H97.9709C97.9989 25.4809 98.3163 24.6689 98.9229 24.1089C99.5389 23.5396 100.318 23.2549 101.261 23.2549C102.278 23.2549 103.072 23.5349 103.641 24.0949C104.22 24.6549 104.509 25.4016 104.509 26.3349C104.509 27.0069 104.336 27.6556 103.991 28.2809C103.655 28.8969 103.249 29.4522 102.773 29.9469C102.306 30.4322 101.709 30.9969 100.981 31.6409L100.351 32.2009H104.789V33.5309H97.9849V32.3689L98.9929 31.5009ZM107.073 31.5009C107.969 30.7262 108.674 30.0916 109.187 29.5969C109.71 29.0929 110.144 28.5702 110.489 28.0289C110.834 27.4876 111.007 26.9462 111.007 26.4049C111.007 25.8449 110.872 25.4062 110.601 25.0889C110.34 24.7716 109.924 24.6129 109.355 24.6129C108.804 24.6129 108.375 24.7902 108.067 25.1449C107.768 25.4902 107.61 25.9569 107.591 26.5449H106.051C106.079 25.4809 106.396 24.6689 107.003 24.1089C107.619 23.5396 108.398 23.2549 109.341 23.2549C110.358 23.2549 111.152 23.5349 111.721 24.0949C112.3 24.6549 112.589 25.4016 112.589 26.3349C112.589 27.0069 112.416 27.6556 112.071 28.2809C111.735 28.8969 111.329 29.4522 110.853 29.9469C110.386 30.4322 109.789 30.9969 109.061 31.6409L108.431 32.2009H112.869V33.5309H106.065V32.3689L107.073 31.5009ZM114.019 25.9289C114.019 25.2476 114.215 24.7156 114.607 24.3329C115.008 23.9409 115.522 23.7449 116.147 23.7449C116.772 23.7449 117.281 23.9409 117.673 24.3329C118.074 24.7156 118.275 25.2476 118.275 25.9289C118.275 26.6102 118.074 27.1469 117.673 27.5389C117.281 27.9309 116.772 28.1269 116.147 28.1269C115.522 28.1269 115.008 27.9309 114.607 27.5389C114.215 27.1469 114.019 26.6102 114.019 25.9289ZM122.559 23.9269L116.973 33.6709H115.405L120.991 23.9269H122.559ZM116.147 24.7109C115.559 24.7109 115.265 25.1169 115.265 25.9289C115.265 26.7502 115.559 27.1609 116.147 27.1609C116.427 27.1609 116.642 27.0629 116.791 26.8669C116.95 26.6616 117.029 26.3489 117.029 25.9289C117.029 25.1169 116.735 24.7109 116.147 24.7109ZM119.717 31.6549C119.717 30.9736 119.913 30.4416 120.305 30.0589C120.706 29.6669 121.22 29.4709 121.845 29.4709C122.461 29.4709 122.965 29.6669 123.357 30.0589C123.758 30.4416 123.959 30.9736 123.959 31.6549C123.959 32.3362 123.758 32.8729 123.357 33.2649C122.965 33.6569 122.461 33.8529 121.845 33.8529C121.22 33.8529 120.706 33.6569 120.305 33.2649C119.913 32.8729 119.717 32.3362 119.717 31.6549ZM121.831 30.4369C121.243 30.4369 120.949 30.8429 120.949 31.6549C120.949 32.4669 121.243 32.8729 121.831 32.8729C122.419 32.8729 122.713 32.4669 122.713 31.6549C122.713 30.8429 122.419 30.4369 121.831 30.4369Z" fill="black"/>
<path d="M128.913 120.367C129.586 119.785 130.115 119.309 130.5 118.938C130.892 118.559 131.218 118.167 131.477 117.761C131.737 117.354 131.866 116.948 131.866 116.542C131.866 116.121 131.765 115.792 131.562 115.554C131.365 115.316 131.054 115.196 130.626 115.196C130.213 115.196 129.891 115.33 129.659 115.596C129.435 115.855 129.316 116.205 129.302 116.647H128.146C128.167 115.848 128.405 115.238 128.861 114.818C129.323 114.391 129.908 114.177 130.616 114.177C131.379 114.177 131.975 114.387 132.402 114.808C132.837 115.228 133.054 115.788 133.054 116.489C133.054 116.993 132.924 117.48 132.665 117.95C132.413 118.412 132.108 118.829 131.751 119.2C131.4 119.565 130.952 119.988 130.406 120.472L129.933 120.892H133.264V121.891H128.157V121.018L128.913 120.367ZM134.316 118.065C134.316 116.853 134.52 115.908 134.926 115.228C135.339 114.541 136.047 114.198 137.049 114.198C138.051 114.198 138.755 114.541 139.161 115.228C139.574 115.908 139.781 116.853 139.781 118.065C139.781 119.291 139.574 120.251 139.161 120.945C138.755 121.631 138.051 121.975 137.049 121.975C136.047 121.975 135.339 121.631 134.926 120.945C134.52 120.251 134.316 119.291 134.316 118.065ZM138.604 118.065C138.604 117.498 138.565 117.018 138.488 116.626C138.418 116.233 138.271 115.915 138.047 115.669C137.823 115.417 137.49 115.291 137.049 115.291C136.607 115.291 136.275 115.417 136.05 115.669C135.826 115.915 135.676 116.233 135.598 116.626C135.528 117.018 135.493 117.498 135.493 118.065C135.493 118.654 135.528 119.148 135.598 119.547C135.669 119.946 135.816 120.269 136.04 120.514C136.271 120.759 136.607 120.882 137.049 120.882C137.49 120.882 137.823 120.759 138.047 120.514C138.278 120.269 138.429 119.946 138.499 119.547C138.569 119.148 138.604 118.654 138.604 118.065ZM140.859 116.184C140.859 115.673 141.007 115.273 141.301 114.986C141.602 114.692 141.987 114.545 142.457 114.545C142.926 114.545 143.308 114.692 143.602 114.986C143.903 115.273 144.054 115.673 144.054 116.184C144.054 116.696 143.903 117.099 143.602 117.393C143.308 117.687 142.926 117.834 142.457 117.834C141.987 117.834 141.602 117.687 141.301 117.393C141.007 117.099 140.859 116.696 140.859 116.184ZM147.27 114.681L143.077 121.996H141.9L146.093 114.681H147.27ZM142.457 115.27C142.015 115.27 141.795 115.575 141.795 116.184C141.795 116.801 142.015 117.109 142.457 117.109C142.667 117.109 142.828 117.035 142.94 116.888C143.059 116.734 143.119 116.5 143.119 116.184C143.119 115.575 142.898 115.27 142.457 115.27ZM145.137 120.482C145.137 119.971 145.284 119.572 145.578 119.284C145.879 118.99 146.264 118.843 146.734 118.843C147.196 118.843 147.575 118.99 147.869 119.284C148.17 119.572 148.321 119.971 148.321 120.482C148.321 120.994 148.17 121.397 147.869 121.691C147.575 121.985 147.196 122.132 146.734 122.132C146.264 122.132 145.879 121.985 145.578 121.691C145.284 121.397 145.137 120.994 145.137 120.482ZM146.723 119.568C146.282 119.568 146.061 119.873 146.061 120.482C146.061 121.092 146.282 121.397 146.723 121.397C147.165 121.397 147.385 121.092 147.385 120.482C147.385 119.873 147.165 119.568 146.723 119.568Z" fill="white"/>
<path d="M93.6568 146.786L90.7354 153.522H89.5269L92.4798 146.912H88.5916V145.893H93.6568V146.786ZM94.493 147.711C94.493 147.199 94.6401 146.8 94.9344 146.513C95.2356 146.218 95.621 146.071 96.0903 146.071C96.5597 146.071 96.9416 146.218 97.2358 146.513C97.5371 146.8 97.6877 147.199 97.6877 147.711C97.6877 148.222 97.5371 148.625 97.2358 148.919C96.9416 149.213 96.5597 149.36 96.0903 149.36C95.621 149.36 95.2356 149.213 94.9344 148.919C94.6401 148.625 94.493 148.222 94.493 147.711ZM100.903 146.208L96.7104 153.522H95.5334L99.7264 146.208H100.903ZM96.0903 146.796C95.649 146.796 95.4283 147.101 95.4283 147.711C95.4283 148.327 95.649 148.635 96.0903 148.635C96.3005 148.635 96.4617 148.562 96.5738 148.415C96.6929 148.261 96.7524 148.026 96.7524 147.711C96.7524 147.101 96.5317 146.796 96.0903 146.796ZM98.7701 152.009C98.7701 151.497 98.9172 151.098 99.2115 150.811C99.5127 150.516 99.898 150.369 100.367 150.369C100.83 150.369 101.208 150.516 101.502 150.811C101.804 151.098 101.954 151.497 101.954 152.009C101.954 152.52 101.804 152.923 101.502 153.217C101.208 153.511 100.83 153.659 100.367 153.659C99.898 153.659 99.5127 153.511 99.2115 153.217C98.9172 152.923 98.7701 152.52 98.7701 152.009ZM100.357 151.094C99.9155 151.094 99.6949 151.399 99.6949 152.009C99.6949 152.618 99.9155 152.923 100.357 152.923C100.798 152.923 101.019 152.618 101.019 152.009C101.019 151.399 100.798 151.094 100.357 151.094Z" fill="white"/>
<path d="M34.1677 121.68C34.8403 121.099 35.3693 120.622 35.7546 120.251C36.1469 119.873 36.4727 119.481 36.7319 119.074C36.9911 118.668 37.1207 118.261 37.1207 117.855C37.1207 117.435 37.0191 117.106 36.816 116.867C36.6198 116.629 36.308 116.51 35.8807 116.51C35.4673 116.51 35.1451 116.643 34.9139 116.909C34.6897 117.169 34.5706 117.519 34.5566 117.96H33.4006C33.4216 117.162 33.6598 116.552 34.1152 116.132C34.5776 115.704 35.1626 115.491 35.8702 115.491C36.6338 115.491 37.2293 115.701 37.6567 116.121C38.091 116.542 38.3082 117.102 38.3082 117.803C38.3082 118.307 38.1786 118.794 37.9194 119.263C37.6672 119.726 37.3624 120.143 37.0051 120.514C36.6548 120.878 36.2065 121.302 35.66 121.785L35.1871 122.206H38.5184V123.204H33.4111V122.332L34.1677 121.68ZM40.2329 121.68C40.9054 121.099 41.4344 120.622 41.8197 120.251C42.212 119.873 42.5378 119.481 42.797 119.074C43.0562 118.668 43.1858 118.261 43.1858 117.855C43.1858 117.435 43.0843 117.106 42.8811 116.867C42.6849 116.629 42.3732 116.51 41.9458 116.51C41.5325 116.51 41.2102 116.643 40.979 116.909C40.7548 117.169 40.6357 117.519 40.6217 117.96H39.4657C39.4868 117.162 39.725 116.552 40.1803 116.132C40.6427 115.704 41.2277 115.491 41.9353 115.491C42.6989 115.491 43.2944 115.701 43.7218 116.121C44.1562 116.542 44.3733 117.102 44.3733 117.803C44.3733 118.307 44.2437 118.794 43.9845 119.263C43.7323 119.726 43.4276 120.143 43.0703 120.514C42.72 120.878 42.2716 121.302 41.7251 121.785L41.2522 122.206H44.5835V123.204H39.4762V122.332L40.2329 121.68ZM45.4468 117.498C45.4468 116.986 45.5939 116.587 45.8882 116.3C46.1894 116.006 46.5747 115.858 47.0441 115.858C47.5135 115.858 47.8953 116.006 48.1896 116.3C48.4908 116.587 48.6415 116.986 48.6415 117.498C48.6415 118.009 48.4908 118.412 48.1896 118.706C47.8953 119.001 47.5135 119.148 47.0441 119.148C46.5747 119.148 46.1894 119.001 45.8882 118.706C45.5939 118.412 45.4468 118.009 45.4468 117.498ZM51.8572 115.995L47.6642 123.309H46.4872L50.6802 115.995H51.8572ZM47.0441 116.584C46.6028 116.584 46.3821 116.888 46.3821 117.498C46.3821 118.114 46.6028 118.423 47.0441 118.423C47.2543 118.423 47.4154 118.349 47.5275 118.202C47.6466 118.048 47.7062 117.813 47.7062 117.498C47.7062 116.888 47.4855 116.584 47.0441 116.584ZM49.7239 121.796C49.7239 121.285 49.871 120.885 50.1652 120.598C50.4665 120.304 50.8518 120.157 51.3212 120.157C51.7836 120.157 52.1619 120.304 52.4562 120.598C52.7574 120.885 52.908 121.285 52.908 121.796C52.908 122.307 52.7574 122.71 52.4562 123.004C52.1619 123.299 51.7836 123.446 51.3212 123.446C50.8518 123.446 50.4665 123.299 50.1652 123.004C49.871 122.71 49.7239 122.307 49.7239 121.796ZM51.3107 120.882C50.8693 120.882 50.6486 121.186 50.6486 121.796C50.6486 122.405 50.8693 122.71 51.3107 122.71C51.7521 122.71 51.9728 122.405 51.9728 121.796C51.9728 121.186 51.7521 120.882 51.3107 120.882Z" fill="white"/>
<path d="M20.392 58.4279C20.434 57.7764 20.6828 57.2685 21.1381 56.9042C21.6005 56.5399 22.189 56.3577 22.9036 56.3577C23.394 56.3577 23.8179 56.4453 24.1752 56.6204C24.5325 56.7956 24.8022 57.0338 24.9844 57.335C25.1665 57.6363 25.2576 57.9761 25.2576 58.3544C25.2576 58.7887 25.142 59.1601 24.9108 59.4683C24.6796 59.7766 24.4029 59.9832 24.0806 60.0883V60.1304C24.4939 60.2565 24.8162 60.4877 25.0474 60.8239C25.2786 61.1532 25.3942 61.5771 25.3942 62.0955C25.3942 62.5089 25.2996 62.8767 25.1105 63.1989C24.9213 63.5212 24.6411 63.7769 24.2698 63.9661C23.8984 64.1482 23.4536 64.2393 22.9351 64.2393C22.1785 64.2393 21.555 64.0466 21.0646 63.6613C20.5812 63.269 20.322 62.7085 20.2869 61.9799H21.4429C21.4709 62.3512 21.6145 62.656 21.8737 62.8942C22.133 63.1254 22.4833 63.241 22.9246 63.241C23.352 63.241 23.6813 63.1254 23.9125 62.8942C24.1436 62.656 24.2592 62.3512 24.2592 61.9799C24.2592 61.4895 24.1016 61.1427 23.7863 60.9395C23.4781 60.7294 23.0017 60.6243 22.3572 60.6243H22.0839V59.6365H22.3677C22.9351 59.6294 23.366 59.5349 23.6602 59.3527C23.9615 59.1706 24.1121 58.8833 24.1121 58.491C24.1121 58.1547 24.0035 57.8885 23.7863 57.6923C23.5692 57.4892 23.2609 57.3876 22.8616 57.3876C22.4692 57.3876 22.1645 57.4892 21.9473 57.6923C21.7301 57.8885 21.6005 58.1337 21.5585 58.4279H20.392ZM26.5055 62.5999V61.6962L30.0365 56.6309H31.4867V61.5596H32.464V62.5999H31.4867V64.1973H30.3097V62.5999H26.5055ZM30.3622 57.85L27.8821 61.5596H30.3622V57.85ZM33.2675 58.3859C33.2675 57.8745 33.4146 57.4751 33.7089 57.1879C34.0101 56.8937 34.3954 56.7465 34.8648 56.7465C35.3342 56.7465 35.716 56.8937 36.0103 57.1879C36.3115 57.4751 36.4622 57.8745 36.4622 58.3859C36.4622 58.8973 36.3115 59.3002 36.0103 59.5944C35.716 59.8887 35.3342 60.0358 34.8648 60.0358C34.3954 60.0358 34.0101 59.8887 33.7089 59.5944C33.4146 59.3002 33.2675 58.8973 33.2675 58.3859ZM39.6779 56.8831L35.4848 64.1973H34.3079L38.5009 56.8831H39.6779ZM34.8648 57.4716C34.4235 57.4716 34.2028 57.7764 34.2028 58.3859C34.2028 59.0024 34.4235 59.3107 34.8648 59.3107C35.075 59.3107 35.2361 59.2371 35.3482 59.09C35.4673 58.9359 35.5269 58.7012 35.5269 58.3859C35.5269 57.7764 35.3062 57.4716 34.8648 57.4716ZM37.5446 62.684C37.5446 62.1726 37.6917 61.7732 37.9859 61.486C38.2872 61.1918 38.6725 61.0446 39.1419 61.0446C39.6043 61.0446 39.9826 61.1918 40.2769 61.486C40.5781 61.7732 40.7287 62.1726 40.7287 62.684C40.7287 63.1954 40.5781 63.5983 40.2769 63.8925C39.9826 64.1868 39.6043 64.3339 39.1419 64.3339C38.6725 64.3339 38.2872 64.1868 37.9859 63.8925C37.6917 63.5983 37.5446 63.1954 37.5446 62.684ZM39.1314 61.7697C38.69 61.7697 38.4693 62.0745 38.4693 62.684C38.4693 63.2935 38.69 63.5983 39.1314 63.5983C39.5728 63.5983 39.7935 63.2935 39.7935 62.684C39.7935 62.0745 39.5728 61.7697 39.1314 61.7697Z" fill="white"/>
<path d="M103.525 44.5586L105.79 61.9633L89.5848 55.2223L103.525 44.5586Z" fill="#303030"/>
<g filter="url(#filter1_d_1_547)">
<circle cx="85.1187" cy="85" r="38" fill="#303030"/>
<circle cx="85.1187" cy="85" r="37.3667" stroke="#303030" stroke-width="1.26667" stroke-linejoin="round" stroke-dasharray="2.53 2.53"/>
</g>
<circle cx="85.1187" cy="84.9999" r="26.6" fill="#303030"/>
<path d="M130.8 50.6C130.659 50.6 130.523 50.6562 130.423 50.7562C130.323 50.8562 130.267 50.9919 130.267 51.1333V60.2C130.267 60.3415 130.323 60.4771 130.423 60.5771C130.523 60.6771 130.659 60.7333 130.8 60.7333C130.882 60.7332 130.964 60.7139 131.037 60.677C131.111 60.6402 131.175 60.5867 131.225 60.5208L132.891 58.6635L134.737 62.9292C134.908 63.3228 135.369 63.5005 135.759 63.3229C136.144 63.148 136.315 62.695 136.141 62.3094L134.234 58.0875L137.2 58.0667C137.341 58.0667 137.477 58.0105 137.577 57.9105C137.677 57.8104 137.733 57.6748 137.733 57.5333C137.733 57.4539 137.716 57.3754 137.681 57.3036C137.647 57.2319 137.597 57.1687 137.535 57.1188L131.218 50.8021C131.168 50.7391 131.104 50.6882 131.032 50.6532C130.96 50.6182 130.88 50.6 130.8 50.6Z" fill="black"/>
<defs>
<filter id="filter0_d_1_547" x="33.7061" y="4.09494" width="140.08" height="96.7863" filterUnits="userSpaceOnUse" color-interpolation-filters="sRGB">
<feFlood flood-opacity="0" result="BackgroundImageFix"/>
<feColorMatrix in="SourceAlpha" type="matrix" values="0 0 0 0 0 0 0 0 0 0 0 0 0 0 0 0 0 0 127 0" result="hardAlpha"/>
<feOffset dy="8"/>
<feGaussianBlur stdDeviation="4"/>
<feComposite in2="hardAlpha" operator="out"/>
<feColorMatrix type="matrix" values="0 0 0 0 0 0 0 0 0 0 0 0 0 0 0 0 0 0 0.25 0"/>
<feBlend mode="normal" in2="BackgroundImageFix" result="effect1_dropShadow_1_547"/>
<feBlend mode="normal" in="SourceGraphic" in2="effect1_dropShadow_1_547" result="shape"/>
</filter>
<filter id="filter1_d_1_547" x="39.1187" y="39" width="92" height="92" filterUnits="userSpaceOnUse" color-interpolation-filters="sRGB">
<feFlood flood-opacity="0" result="BackgroundImageFix"/>
<feColorMatrix in="SourceAlpha" type="matrix" values="0 0 0 0 0 0 0 0 0 0 0 0 0 0 0 0 0 0 127 0" result="hardAlpha"/>
<feOffset/>
<feGaussianBlur stdDeviation="4"/>
<feComposite in2="hardAlpha" operator="out"/>
<feColorMatrix type="matrix" values="0 0 0 0 0 0 0 0 0 0 0 0 0 0 0 0 0 0 0.25 0"/>
<feBlend mode="normal" in2="BackgroundImageFix" result="effect1_dropShadow_1_547"/>
<feBlend mode="normal" in="SourceGraphic" in2="effect1_dropShadow_1_547" result="shape"/>
</filter>
</defs>
</svg>
